# xmcd
#
# Track frame offsets:
#	150
#	14899
#	28642
#	43453
#	64353
#	74610
#	86730
#	98972
#	111429
#	119647
#	130898
#	147647
#	161549
#	172372
#	186870
#	200009
#	212449
#	233444
#	260625
#	274435
#
# Disc length: 3910 seconds
#
# Revision: 1
# Processed by: cddbd v1.5.2PL0 Copyright (c) Steve Scherf et al.
# Submitted via: audiograbber 1.83.01
#
DISCID=4f0f4414
DTITLE=Dr. John - The Essential Recordings [Bonus Tracks]
DYEAR=2008
DGENRE=R&B
TTITLE0=Tipitina
TTITLE1=She's Just A Square
TTITLE2=Zuzu Man
TTITLE3=Mean Cheating Woman
TTITLE4=One Night Late
TTITLE5=In The Night
TTITLE6=Did She Mention My Name?
TTITLE7=The Grass Looks Greener Yonder
TTITLE8=New Orleans
TTITLE9=Bald Headed
TTITLE10=The Time Had Come
TTITLE11=Loser For You Baby
TTITLE12=The Ear Is On Strike
TTITLE13=A Little Closer To My Home
TTITLE14=I Pulled The Cover Off You Two Lovers
TTITLE15=Go Ahead On
TTITLE16=Just Like A Mirror
TTITLE17=Bring Your Love
TTITLE18=Make Your Own
TTITLE19=Shoo Ra
EXTD=
EXTT0=
EXTT1=
EXTT2=
EXTT3=
EXTT4=
EXTT5=
EXTT6=
EXTT7=
EXTT8=
EXTT9=
EXTT10=
EXTT11=
EXTT12=
EXTT13=
EXTT14=
EXTT15=
EXTT16=
EXTT17=
EXTT18=
EXTT19=
PLAYORDER=
